# xmcd
#
# Track frame offsets:
#	300
#	17225
#	36755
#	46655
#	61777
#	76787
#	91405
#	107815
#	125647
#	140287
#
# Disc length: 2043 seconds
#
# Revision: 1
# Processed by: cddbd v1.5.1PL2 Copyright (c) Steve Scherf et al.
# Submitted via: audiograbber 1.83.01
#
DISCID=7907f70a
DTITLE=Chris Ledoux - Wild and Wooly
DYEAR=1991
DGENRE=Country
TTITLE0=The Real Thing
TTITLE1=Little Long Haired Outlaw
TTITLE2=A Little Money Honey
TTITLE3=I Do it For Me
TTITLE4=Wild and Wooly
TTITLE5=Born in Mississippi
TTITLE6=Running Through The Rain
TTITLE7=I Believe in America
TTITLE8=Cowboy Songs
TTITLE9=Foggy Mountain Breakdown
EXTD=
EXTT0=
EXTT1=
EXTT2=
EXTT3=
EXTT4=
EXTT5=
EXTT6=
EXTT7=
EXTT8=
EXTT9=
PLAYORDER=
